<svg xmlns="http://www.w3.org/2000/svg" data-name="Layer 1" viewBox="0 0 128 128" id="teacher"><path d="M81.195 27.936h-9.36A15.898 15.898 0 0 1 74 35.94c0 .291-.028.576-.044.863zM40 62.958v8.005h4v-8.005a2 2 0 1 0-4 0zm38.045-5.032L95.417 35.62a5.743 5.743 0 0 0 1.373-3.731 5.899 5.899 0 0 0-2.121-4.522 5.992 5.992 0 0 0-8.378.653l-13 15.926h-1.456a16.1 16.1 0 0 1-3.288 4.003h5.693a2 2 0 0 0 1.549-.735L89.349 30.6a1.966 1.966 0 0 1 2.745-.17 1.883 1.883 0 0 1 .696 1.459 1.744 1.744 0 0 1-.426 1.145 1.444 1.444 0 0 0-.071.086l-17.83 22.894a2 2 0 0 0-.423 1.23v.028c.02 2.206.008 12.014.005 13.692h4"></path><path d="M44 43.946a12.017 12.017 0 0 0-12 12.008v15.01h4v-15.01a8.012 8.012 0 0 1 8-8.005h3.453a16.1 16.1 0 0 1-3.288-4.003zm14-20.013a12.008 12.008 0 1 0 12 12.008 12.017 12.017 0 0 0-12-12.008z"></path><path d="M122 0H6a6.008 6.008 0 0 0-6 6.004V62.04a6.008 6.008 0 0 0 6 6.004l22-.151v-11.94a16.023 16.023 0 0 1 14.546-15.936 15.756 15.756 0 0 1 1.619-12.081H10a2.001 2.001 0 0 1 0-4.003h37.453A15.91 15.91 0 0 1 58 19.931H10a2.001 2.001 0 0 1 0-4.003h62a2.001 2.001 0 0 1 0 4.003H58a15.91 15.91 0 0 1 10.547 4.002h16.29a10.017 10.017 0 0 1 12.412.376 9.878 9.878 0 0 1 3.541 7.58 9.764 9.764 0 0 1-2.293 6.285L82.052 59.292c.008 1.924.006 4.235-.002 6.687v1.543l4.985-.034c-.011-.176-.035-.349-.035-.527v-4.003a8.012 8.012 0 0 1 8-8.005h18a8.012 8.012 0 0 1 8 8.005v.585a8.035 8.035 0 0 1 4.045 3.664A5.438 5.438 0 0 0 128 62.04V6.004A6.008 6.008 0 0 0 122 0ZM34 11.926H10a2.001 2.001 0 0 1 0-4.003h24a2.001 2.001 0 0 1 0 4.003Z"></path><path d="M124 74.966h-2v-4.002a4.001 4.001 0 0 0-4-4.003h-1v-4.003a4.001 4.001 0 0 0-4-4.002H95a4.001 4.001 0 0 0-4 4.002v4.003a4.001 4.001 0 0 0 4 4.002h1v4.003H4a4.001 4.001 0 0 0-4 4.003v4.002a4.001 4.001 0 0 0 4 4.003h2v39.025a2 2 0 1 0 4 0V86.974h108v39.025a2 2 0 1 0 4 0V86.974h2a4.001 4.001 0 0 0 4-4.003V78.97a4.001 4.001 0 0 0-4-4.003Zm-6-4.002v4.002h-18v-4.002ZM95 66.96v-4.003h18v4.003Zm29 16.01H4V78.97h120Z"></path></svg>